<svg width="18" height="18" viewBox="0 0 18 18" fill="none" xmlns="http://www.w3.org/2000/svg">
<g clip-path="url(#clip0_3_31)">
<path d="M3.80157 11.379C3.80157 12.4251 2.95514 13.2707 1.90786 13.2707C0.860589 13.2707 0.0141602 12.4251 0.0141602 11.379C0.0141602 10.3328 0.860589 9.48724 1.90786 9.48724H3.80157V11.379ZM4.74842 11.379C4.74842 10.3328 5.59486 9.48724 6.64212 9.48724C7.6894 9.48724 8.53582 10.3328 8.53582 11.379V16.1083C8.53582 17.1545 7.6894 18 6.64212 18C5.59486 18 4.74842 17.1545 4.74842 16.1083V11.379Z" fill="#E01E5A"/>
<path d="M6.64231 3.78345C5.59503 3.78345 4.74861 2.9379 4.74861 1.89172C4.74861 0.845541 5.59503 0 6.64231 0C7.68959 0 8.53601 0.845541 8.53601 1.89172V3.78345H6.64231ZM6.64231 4.74363C7.68959 4.74363 8.53601 5.58917 8.53601 6.63535C8.53601 7.68153 7.68959 8.52708 6.64231 8.52708H1.8937C0.846428 8.52708 0 7.68153 0 6.63535C0 5.58917 0.846428 4.74363 1.8937 4.74363H6.64231Z" fill="#36C5F0"/>
<path d="M14.2313 6.63535C14.2313 5.58917 15.0778 4.74363 16.125 4.74363C17.1722 4.74363 18.0188 5.58917 18.0188 6.63535C18.0188 7.68153 17.1722 8.52708 16.125 8.52708H14.2313V6.63535ZM13.2845 6.63535C13.2845 7.68153 12.4381 8.52708 11.3908 8.52708C10.3435 8.52708 9.49707 7.68153 9.49707 6.63535V1.89172C9.49707 0.845541 10.3435 0 11.3908 0C12.4381 0 13.2845 0.845541 13.2845 1.89172V6.63535Z" fill="#2EB67D"/>
<path d="M11.3908 14.2165C12.4381 14.2165 13.2845 15.0621 13.2845 16.1083C13.2845 17.1545 12.4381 18 11.3908 18C10.3435 18 9.49707 17.1545 9.49707 16.1083V14.2165H11.3908ZM11.3908 13.2707C10.3435 13.2707 9.49707 12.4251 9.49707 11.379C9.49707 10.3328 10.3435 9.48724 11.3908 9.48724H16.1394C17.1866 9.48724 18.033 10.3328 18.033 11.379C18.033 12.4251 17.1866 13.2707 16.1394 13.2707H11.3908Z" fill="#ECB22E"/>
</g>
<defs>
<clipPath id="clip0_3_31">
<rect width="18" height="18" fill="white"/>
</clipPath>
</defs>
</svg>
