<svg width="18" height="18" viewBox="0 0 18 18" fill="none" xmlns="http://www.w3.org/2000/svg">
<g clip-path="url(#clip0_25_44)">
<path d="M5.07247 8.25924C5.07247 8.48072 5.0964 8.66033 5.13831 8.79204C5.18621 8.92375 5.24609 9.06741 5.3299 9.22308C5.35982 9.27095 5.3718 9.31885 5.3718 9.36075C5.3718 9.42063 5.33586 9.48048 5.25804 9.54036L4.88088 9.7918C4.82702 9.82771 4.77314 9.84568 4.72524 9.84568C4.66536 9.84568 4.60551 9.81573 4.54563 9.76187C4.46182 9.67207 4.38999 9.57627 4.33011 9.48048C4.27026 9.37872 4.21038 9.26499 4.14454 9.12729C3.67758 9.67806 3.0909 9.95343 2.38447 9.95343C1.8816 9.95343 1.48049 9.80977 1.18715 9.52239C0.893808 9.23503 0.744141 8.85189 0.744141 8.37297C0.744141 7.86411 0.923741 7.45104 1.28892 7.13972C1.65411 6.82843 2.13902 6.67276 2.75564 6.67276C2.95919 6.67276 3.16872 6.69073 3.39023 6.72066C3.61171 6.75058 3.83922 6.79848 4.07867 6.85237V6.41533C4.07867 5.96036 3.98291 5.64308 3.79731 5.45748C3.60575 5.27191 3.28245 5.18211 2.82149 5.18211C2.61196 5.18211 2.39645 5.20604 2.17494 5.25993C1.95344 5.31382 1.73792 5.37966 1.52839 5.46347C1.4326 5.50538 1.36076 5.52934 1.31886 5.54129C1.27695 5.55328 1.24702 5.55927 1.22307 5.55927C1.13926 5.55927 1.09735 5.49939 1.09735 5.37367V5.08033C1.09735 4.98456 1.10932 4.9127 1.13926 4.87079C1.16919 4.82889 1.22307 4.78698 1.30688 4.74508C1.51641 4.63733 1.76785 4.54753 2.06119 4.47569C2.35454 4.39787 2.66584 4.36193 2.9951 4.36193C3.70751 4.36193 4.22835 4.52359 4.5636 4.84686C4.89286 5.17013 5.06049 5.66102 5.06049 6.31957V8.25924H5.07247ZM2.6419 9.16919C2.83946 9.16919 3.043 9.13328 3.25852 9.06142C3.47404 8.98959 3.6656 8.85788 3.82724 8.67827C3.92303 8.56453 3.99486 8.43882 4.03078 8.29515C4.06672 8.15146 4.09065 7.97785 4.09065 7.77431V7.52287C3.91704 7.48096 3.73147 7.44505 3.53988 7.42108C3.34832 7.39715 3.16273 7.38517 2.97716 7.38517C2.57604 7.38517 2.2827 7.46299 2.08514 7.62465C1.88758 7.78629 1.7918 8.01376 1.7918 8.3131C1.7918 8.59449 1.86364 8.80402 2.0133 8.94768C2.15698 9.09736 2.36651 9.16919 2.6419 9.16919ZM7.44914 9.81573C7.3414 9.81573 7.26954 9.79779 7.22164 9.75588C7.17377 9.71996 7.13187 9.63615 7.09592 9.52239L5.68908 4.89476C5.65317 4.77503 5.63519 4.69718 5.63519 4.65527C5.63519 4.55951 5.68309 4.50562 5.77888 4.50562H6.36557C6.47931 4.50562 6.55713 4.52359 6.59904 4.5655C6.64693 4.60141 6.68285 4.68523 6.71877 4.79896L7.72451 8.76211L8.65843 4.79896C8.68836 4.67924 8.7243 4.60141 8.77217 4.5655C8.82007 4.52955 8.90388 4.50562 9.01165 4.50562H9.49057C9.60433 4.50562 9.68216 4.52359 9.73005 4.5655C9.77792 4.60141 9.81983 4.68523 9.84379 4.79896L10.7897 8.80998L11.8254 4.79896C11.8613 4.67924 11.9032 4.60141 11.9451 4.5655C11.993 4.52955 12.0708 4.50562 12.1786 4.50562H12.7353C12.8311 4.50562 12.885 4.55352 12.885 4.65527C12.885 4.68523 12.879 4.71515 12.873 4.75107C12.867 4.78698 12.855 4.83488 12.8311 4.90075L11.3883 9.52838C11.3524 9.64811 11.3105 9.72596 11.2626 9.76187C11.2147 9.79779 11.1369 9.82172 11.0351 9.82172H10.5203C10.4065 9.82172 10.3287 9.80378 10.2808 9.76187C10.2329 9.71997 10.191 9.64214 10.1671 9.52239L9.23913 5.66102L8.31719 9.51642C8.28727 9.63615 8.25135 9.71397 8.20346 9.75588C8.15556 9.79779 8.07175 9.81573 7.964 9.81573H7.44914ZM15.1419 9.97739C14.8306 9.97739 14.5193 9.94145 14.22 9.86962C13.9207 9.79779 13.6872 9.71997 13.5315 9.63016C13.4357 9.57627 13.3699 9.51642 13.3459 9.46254C13.322 9.40865 13.31 9.34877 13.31 9.29491V8.98959C13.31 8.86387 13.3579 8.80399 13.4477 8.80399C13.4836 8.80399 13.5196 8.80998 13.5555 8.82196C13.5914 8.83394 13.6453 8.85788 13.7052 8.88184C13.9087 8.97164 14.1302 9.04347 14.3637 9.09137C14.6031 9.13927 14.8366 9.1632 15.0761 9.1632C15.4532 9.1632 15.7466 9.09733 15.9501 8.96565C16.1537 8.83394 16.2614 8.64236 16.2614 8.39691C16.2614 8.22928 16.2075 8.09158 16.0998 7.97785C15.992 7.86411 15.7885 7.76233 15.4951 7.66656L14.6271 7.39715C14.1901 7.25945 13.8668 7.05591 13.6692 6.78653C13.4717 6.52311 13.3699 6.22977 13.3699 5.91845C13.3699 5.66701 13.4238 5.44553 13.5315 5.25394C13.6393 5.06238 13.783 4.89476 13.9626 4.76305C14.1422 4.62535 14.3457 4.52359 14.5852 4.45173C14.8246 4.3799 15.0761 4.34998 15.3395 4.34998C15.4712 4.34998 15.6089 4.35597 15.7406 4.37391C15.8783 4.39188 16.004 4.41582 16.1297 4.43978C16.2495 4.4697 16.3632 4.49963 16.471 4.53554C16.5787 4.57146 16.6625 4.6074 16.7224 4.64332C16.8062 4.69122 16.8661 4.73908 16.902 4.79297C16.9379 4.84087 16.9559 4.90671 16.9559 4.99052V5.27191C16.9559 5.39763 16.908 5.46347 16.8182 5.46347C16.7703 5.46347 16.6925 5.43954 16.5907 5.39164C16.2495 5.236 15.8663 5.15815 15.4413 5.15815C15.1 5.15815 14.8306 5.21203 14.645 5.32577C14.4595 5.43954 14.3637 5.61315 14.3637 5.8586C14.3637 6.02623 14.4235 6.16989 14.5433 6.28365C14.663 6.39739 14.8845 6.51113 15.2018 6.61291L16.0519 6.88229C16.4829 7.01999 16.7942 7.21155 16.9798 7.45703C17.1654 7.70247 17.2552 7.98384 17.2552 8.29515C17.2552 8.55255 17.2013 8.78605 17.0996 8.98959C16.9918 9.19313 16.8481 9.37273 16.6625 9.51642C16.477 9.66608 16.2554 9.77382 15.998 9.85165C15.7286 9.93549 15.4472 9.97739 15.1419 9.97739Z" fill="#252F3E"/>
<path fill-rule="evenodd" clip-rule="evenodd" d="M16.2735 12.8869C14.3039 14.3416 11.4423 15.1139 8.98183 15.1139C5.53354 15.1139 2.42649 13.8388 0.0797426 11.7195C-0.105842 11.5519 0.0617828 11.3244 0.283286 11.4561C2.82161 12.9288 5.9526 13.8208 9.19136 13.8208C11.3765 13.8208 13.7771 13.3658 15.9862 12.4319C16.3154 12.2822 16.5968 12.6474 16.2735 12.8869Z" fill="#FF9900"/>
<path fill-rule="evenodd" clip-rule="evenodd" d="M17.0938 11.953C16.8423 11.6297 15.4295 11.7974 14.7889 11.8752C14.5973 11.8991 14.5674 11.7315 14.741 11.6058C15.8665 10.8156 17.7164 11.0431 17.9319 11.3065C18.1474 11.5759 17.872 13.4257 16.8184 14.3117C16.6567 14.4494 16.5011 14.3776 16.5729 14.198C16.8124 13.6053 17.3452 12.2703 17.0938 11.953Z" fill="#FF9900"/>
</g>
<defs>
<clipPath id="clip0_25_44">
<rect width="18" height="18" fill="white"/>
</clipPath>
</defs>
</svg>
