<svg width="18" height="18" viewBox="0 0 18 18" fill="none" xmlns="http://www.w3.org/2000/svg">
<path d="M6.26875 1.2843H11.137L6.08348 16.2579C6.03153 16.4118 5.93262 16.5455 5.80067 16.6403C5.66871 16.735 5.51037 16.786 5.34794 16.786H1.55929C1.43623 16.786 1.31494 16.7567 1.20545 16.7005C1.09596 16.6443 1.00142 16.5629 0.929645 16.4629C0.857874 16.363 0.810938 16.2473 0.79272 16.1256C0.774502 16.0039 0.785525 15.8797 0.824878 15.7631L5.53321 1.81235C5.58515 1.65844 5.68406 1.5247 5.81602 1.42997C5.94797 1.33524 6.10632 1.28429 6.26875 1.2843V1.2843Z" fill="url(#paint0_linear_25_45)"/>
<path d="M13.343 11.3276H5.62309C5.55134 11.3276 5.48124 11.3492 5.42193 11.3896C5.36261 11.43 5.31682 11.4872 5.29051 11.554C5.26421 11.6207 5.2586 11.6939 5.27443 11.7639C5.29025 11.8338 5.32677 11.8974 5.37924 11.9464L10.3399 16.5763C10.4843 16.711 10.6745 16.786 10.872 16.786H15.2431L13.343 11.3276Z" fill="#0078D4"/>
<path d="M6.26916 1.28431C6.10497 1.2837 5.94489 1.33559 5.81228 1.43241C5.67968 1.52923 5.5815 1.6659 5.53208 1.82248L0.831122 15.7504C0.789137 15.8674 0.775955 15.9928 0.792691 16.116C0.809427 16.2392 0.855589 16.3566 0.927272 16.4582C0.998955 16.5597 1.09405 16.6426 1.20451 16.6996C1.31497 16.7567 1.43755 16.7863 1.56188 16.786H5.44833C5.59312 16.7601 5.72845 16.6963 5.84049 16.601C5.95252 16.5057 6.03724 16.3823 6.086 16.2436L7.02326 13.481L10.3719 16.6041C10.5122 16.7202 10.6882 16.7844 10.8703 16.786H15.2253L13.3152 11.3276L7.74713 11.3289L11.1552 1.28431H6.26916Z" fill="url(#paint1_linear_25_45)"/>
<path d="M12.4871 1.8115C12.4352 1.65785 12.3365 1.52433 12.2047 1.42975C12.073 1.33518 11.9149 1.2843 11.7527 1.2843H6.32715C6.48933 1.2843 6.64743 1.33517 6.77917 1.42975C6.91092 1.52432 7.00969 1.65784 7.06156 1.8115L11.7702 15.763C11.8095 15.8796 11.8206 16.0039 11.8023 16.1256C11.7841 16.2473 11.7372 16.3629 11.6654 16.4629C11.5936 16.5628 11.4991 16.6443 11.3896 16.7005C11.2801 16.7567 11.1588 16.786 11.0358 16.786H16.4614C16.5844 16.7859 16.7057 16.7566 16.8152 16.7004C16.9247 16.6443 17.0192 16.5628 17.091 16.4629C17.1627 16.3629 17.2096 16.2473 17.2279 16.1256C17.2461 16.0039 17.2351 15.8796 17.1957 15.763L12.4871 1.8115Z" fill="url(#paint2_linear_25_45)"/>
<defs>
<linearGradient id="paint0_linear_25_45" x1="8.04316" y1="2.433" x2="2.98734" y2="17.3691" gradientUnits="userSpaceOnUse">
<stop stop-color="#114A8B"/>
<stop offset="1" stop-color="#0669BC"/>
</linearGradient>
<linearGradient id="paint1_linear_25_45" x1="9.62293" y1="9.39359" x2="8.45335" y2="9.78903" gradientUnits="userSpaceOnUse">
<stop stop-opacity="0.3"/>
<stop offset="0.071" stop-opacity="0.2"/>
<stop offset="0.321" stop-opacity="0.1"/>
<stop offset="0.623" stop-opacity="0.05"/>
<stop offset="1" stop-opacity="0"/>
</linearGradient>
<linearGradient id="paint2_linear_25_45" x1="8.97962" y1="1.99727" x2="14.5293" y2="16.783" gradientUnits="userSpaceOnUse">
<stop stop-color="#3CCBF4"/>
<stop offset="1" stop-color="#2892DF"/>
</linearGradient>
</defs>
</svg>
