<svg width="24" height="25" viewBox="0 0 24 25" fill="none" xmlns="http://www.w3.org/2000/svg">
<path d="M11.2258 9.88359L11.3742 7.26581C11.1971 7.28725 11.0195 7.31718 10.8417 7.35751C9.86851 7.57831 9.02409 8.05769 8.3639 8.70639L10.512 10.228L10.5162 10.2259C10.589 10.279 10.6785 10.3101 10.7755 10.3101C11.0123 10.3101 11.2052 10.1231 11.2152 9.88893L11.2258 9.88359Z" fill="white"/>
<path d="M15.618 8.70746C14.8128 7.91954 13.762 7.40544 12.6259 7.26581L12.7742 9.87933L12.7763 9.8804C12.7801 9.97035 12.8119 10.0595 12.8724 10.1352C13.02 10.3202 13.2869 10.3545 13.4763 10.2163L13.4838 10.2195L15.618 8.70746Z" fill="white"/>
<path d="M9.54624 11.4372L7.58493 9.6842C7.00284 10.6318 6.72708 11.7683 6.85504 12.9375L9.3691 12.2124L9.37124 12.2039C9.45815 12.1801 9.53911 12.1293 9.59959 12.0535C9.74724 11.8685 9.72114 11.6017 9.5441 11.4479L9.54624 11.4372Z" fill="white"/>
<path d="M17.0436 11.2559C16.9122 10.6844 16.6916 10.1573 16.4002 9.68526L14.4495 11.4297L14.4506 11.4351C14.3826 11.4941 14.3324 11.5741 14.3108 11.6686C14.2581 11.8993 14.3972 12.1293 14.6235 12.1911L14.6256 12.2017L17.1525 12.929C17.206 12.3842 17.1734 11.8206 17.0436 11.2559Z" fill="white"/>
<path d="M12.4007 11.5726H11.5972L11.0967 12.1953L11.276 12.9738L11.9995 13.3214L12.7208 12.9748L12.9001 12.1964L12.4007 11.5726Z" fill="white"/>
<path d="M14.2745 13.7148C14.2413 13.7087 14.2073 13.7057 14.1731 13.7074C14.1162 13.7102 14.0592 13.7248 14.0045 13.7511C13.7912 13.8538 13.6984 14.1063 13.7911 14.3216L13.7879 14.3258L14.7974 16.7623C15.7704 16.1429 16.4987 15.2173 16.8793 14.1488L14.2788 13.7095L14.2745 13.7148Z" fill="white"/>
<path d="M10.2281 14.0603C10.182 13.8585 10.004 13.7208 9.80554 13.718C9.77719 13.7176 9.74795 13.7202 9.71911 13.7255L9.71484 13.7202L7.13675 14.1574C7.53463 15.2574 8.27842 16.154 9.21224 16.7528L10.211 14.3408L10.2036 14.3312C10.2392 14.2485 10.2497 14.1548 10.2281 14.0603Z" fill="white"/>
<path d="M12.1894 14.8185C12.1227 14.7864 12.0526 14.7722 11.9835 14.7748C11.8314 14.7803 11.6871 14.8651 11.6111 15.0072H11.6089L10.3412 17.2976C11.2185 17.5964 12.1874 17.6632 13.1594 17.4427C13.3328 17.4033 13.5024 17.3561 13.6673 17.3008L12.3964 15.0061H12.3868C12.3443 14.9267 12.2768 14.8605 12.1894 14.8185Z" fill="white"/>
<path fill-rule="evenodd" clip-rule="evenodd" d="M11.3054 0.504444C11.4968 0.413076 11.7046 0.36051 11.9168 0.349829C12.1837 0.336345 12.4497 0.38951 12.6904 0.504444L21.0351 4.48604C21.251 4.5891 21.4408 4.73905 21.5902 4.92476C21.7397 5.11047 21.845 5.32716 21.8984 5.55874L23.96 14.5072C24.0134 14.7389 24.0133 14.9795 23.9599 15.2112C23.9066 15.4429 23.8012 15.6597 23.6516 15.8454L17.8786 23.0217C17.729 23.2071 17.5392 23.3568 17.3233 23.4597C17.1073 23.5625 16.8708 23.6158 16.6312 23.6156L7.36993 23.6177C7.13027 23.6178 6.89367 23.5643 6.67771 23.4613C6.46176 23.3583 6.27199 23.2084 6.1225 23.0227L0.347407 15.8476C0.315121 15.8071 0.28485 15.7651 0.256705 15.7217C0.140628 15.5443 0.0616495 15.3455 0.0244417 15.1373C-0.0127661 14.929 -0.00744662 14.7155 0.0400853 14.5093L2.0985 5.56088C2.15186 5.32929 2.25718 5.1126 2.40663 4.92689C2.55608 4.74118 2.74583 4.59123 2.96178 4.48817L11.3054 0.504444ZM11.5001 3.94959C11.5 3.64338 11.7237 3.39514 11.9995 3.39511C12.2753 3.39508 12.4988 3.64338 12.4989 3.94959C12.4989 3.965 12.4993 3.98228 12.4996 3.99995C12.5003 4.03208 12.5009 4.06551 12.4999 4.09141C12.4956 4.20792 12.4774 4.3064 12.4588 4.40665C12.4492 4.45836 12.4395 4.51054 12.4317 4.56591L12.4285 4.59243C12.3878 4.92889 12.3539 5.20972 12.3751 5.47121C12.3921 5.58709 12.4529 5.64249 12.5111 5.69544C12.5203 5.70386 12.5295 5.71221 12.5384 5.72073C12.5398 5.7569 12.5457 5.87709 12.5501 5.94358C14.138 6.08454 15.6126 6.81013 16.6957 7.94505L16.8857 7.80963C16.8933 7.81008 16.9021 7.81075 16.9117 7.81149C16.9831 7.81697 17.1034 7.82622 17.1887 7.77657C17.4068 7.62985 17.606 7.4277 17.8443 7.18571L17.8621 7.16771C17.8997 7.12783 17.934 7.08859 17.968 7.04972C18.0359 6.97204 18.1024 6.89585 18.1918 6.81902C18.2139 6.80002 18.2442 6.77638 18.2721 6.75455C18.2829 6.74615 18.2933 6.73802 18.3028 6.73052C18.5423 6.53956 18.8756 6.55986 19.0476 6.77531C19.2196 6.99075 19.1644 7.3201 18.9249 7.51106C18.9136 7.5201 18.9013 7.5303 18.8886 7.54077C18.8631 7.56172 18.8364 7.58373 18.815 7.59956C18.7219 7.66825 18.6336 7.715 18.544 7.76245C18.4966 7.78753 18.4489 7.8128 18.3999 7.84161L18.3995 7.84185C18.101 8.02608 17.8535 8.17883 17.6572 8.36304C17.5768 8.44892 17.5713 8.53086 17.566 8.60944C17.5652 8.62157 17.5644 8.63363 17.5633 8.64561C17.55 8.65785 17.5204 8.68422 17.4876 8.71353C17.4522 8.74512 17.413 8.78011 17.3861 8.80449C17.8166 9.44472 18.1394 10.1714 18.322 10.9659C18.5029 11.7531 18.5311 12.5398 18.4266 13.2958L18.6282 13.3544C18.6325 13.3604 18.6373 13.3675 18.6426 13.3752C18.6824 13.4337 18.7513 13.535 18.8438 13.5709C19.0982 13.6509 19.3842 13.6809 19.7286 13.7169L19.7391 13.718C19.7955 13.7227 19.8492 13.7248 19.9025 13.7269C20.0042 13.7309 20.1042 13.7349 20.2182 13.7564C20.2442 13.7613 20.2776 13.7696 20.3094 13.7775C20.3286 13.7823 20.3472 13.7869 20.3633 13.7906C20.6577 13.8615 20.8467 14.132 20.7859 14.3983C20.7251 14.6648 20.4375 14.8267 20.1414 14.763C20.1403 14.7628 20.139 14.7626 20.1377 14.7625C20.1364 14.7623 20.135 14.7622 20.1339 14.762C20.1306 14.7612 20.1276 14.7596 20.1243 14.7588C20.1094 14.7555 20.0931 14.7522 20.0767 14.7489C20.0477 14.7431 20.0183 14.7372 19.9952 14.731C19.8829 14.701 19.7909 14.6612 19.6975 14.6208C19.6488 14.5997 19.5996 14.5784 19.547 14.5583L19.5319 14.5529C19.2082 14.4369 18.9388 14.3403 18.6763 14.3024C18.5594 14.2932 18.492 14.34 18.4274 14.3848C18.4172 14.3919 18.407 14.399 18.3967 14.4058C18.3602 14.3985 18.2479 14.3786 18.1833 14.3685C17.7047 15.8713 16.6858 17.1724 15.3043 17.9875C15.3119 18.006 15.3213 18.0311 15.3311 18.0575C15.3519 18.1132 15.3746 18.1744 15.3875 18.1891C15.3831 18.2007 15.3785 18.2123 15.3738 18.2239C15.3445 18.2965 15.3141 18.3717 15.3491 18.4834C15.446 18.7345 15.6028 18.9801 15.7919 19.2756C15.8232 19.3223 15.8548 19.3653 15.8861 19.408C15.9463 19.49 16.0054 19.5706 16.0598 19.6734C16.0735 19.6994 16.0904 19.7351 16.1058 19.7677C16.1126 19.782 16.119 19.7957 16.1248 19.8077C16.2533 20.0821 16.159 20.3982 15.9125 20.5168C15.664 20.6364 15.3551 20.5101 15.2221 20.2343C15.2164 20.2225 15.21 20.2096 15.2034 20.1963C15.188 20.1653 15.1715 20.1321 15.1602 20.1063C15.1133 19.999 15.0867 19.9018 15.0596 19.8029C15.0458 19.7525 15.0319 19.7017 15.0151 19.6488L15.0104 19.6352C14.8991 19.3093 14.8068 19.0388 14.6725 18.8097C14.6065 18.7122 14.5275 18.6884 14.4519 18.6657C14.4404 18.6622 14.4289 18.6587 14.4175 18.655C14.4093 18.6409 14.3895 18.6051 14.368 18.5661C14.3478 18.5296 14.3261 18.4903 14.3108 18.4631C14.0349 18.5673 13.7495 18.6541 13.4539 18.7212C12.1581 19.0152 10.8609 18.8959 9.70203 18.4514L9.58892 18.6561C9.50473 18.6786 9.42352 18.7015 9.37371 18.7609C9.24588 18.9133 9.17203 19.1304 9.09356 19.3612C9.06037 19.4588 9.02635 19.5588 8.98708 19.6574C8.97001 19.7111 8.95603 19.7628 8.94216 19.814C8.91561 19.912 8.88951 20.0084 8.84302 20.1148C8.8323 20.1394 8.81671 20.1704 8.80188 20.2C8.79455 20.2146 8.78741 20.2288 8.78113 20.2417C8.78106 20.2419 8.7811 20.2421 8.78113 20.2422C8.78117 20.2424 8.7812 20.2426 8.78113 20.2428C8.78094 20.2432 8.78027 20.2435 8.78007 20.2438C8.64679 20.5188 8.33883 20.6447 8.09073 20.5254C7.84417 20.4067 7.75002 20.0907 7.87838 19.8163C7.88529 19.8019 7.89301 19.7853 7.90097 19.768C7.91499 19.7377 7.9298 19.7057 7.9424 19.6819C7.99704 19.5785 8.05652 19.4972 8.11702 19.4144C8.148 19.3721 8.17924 19.3293 8.21024 19.2831C8.3993 18.9875 8.56534 18.7224 8.66227 18.4712C8.68662 18.3878 8.65056 18.2735 8.61787 18.1891L8.70857 17.9715C7.37925 17.1844 6.32943 15.93 5.82849 14.3781L5.61081 14.4154C5.6042 14.4117 5.59684 14.4074 5.58881 14.4028C5.52596 14.3664 5.42251 14.3064 5.32376 14.3141C5.06099 14.3521 4.79136 14.4487 4.46731 14.5649L4.45301 14.57C4.40126 14.5898 4.35289 14.6106 4.30497 14.6312C4.21068 14.6716 4.11811 14.7114 4.00484 14.7417C3.97926 14.7485 3.94584 14.7556 3.91384 14.7623C3.90068 14.7651 3.88775 14.7678 3.87572 14.7705C3.87411 14.7709 3.87258 14.7715 3.87106 14.7721C3.86945 14.7727 3.86783 14.7733 3.86611 14.7737C3.865 14.7739 3.86368 14.7741 3.86236 14.7742C3.86103 14.7744 3.85972 14.7745 3.85864 14.7747C3.56253 14.8385 3.27501 14.6765 3.21412 14.4101C3.15325 14.1437 3.34234 13.8733 3.63669 13.8023C3.63779 13.802 3.63909 13.8016 3.6404 13.8012C3.64171 13.8008 3.64302 13.8004 3.64416 13.8001C3.64483 13.8 3.64548 13.7998 3.64613 13.7996C3.64689 13.7994 3.64764 13.7992 3.64843 13.7991C3.661 13.7961 3.67461 13.7928 3.68854 13.7894C3.72095 13.7815 3.75506 13.7732 3.78181 13.7682C3.89578 13.7466 3.99583 13.7427 4.09744 13.7387C4.15076 13.7366 4.20452 13.7345 4.26094 13.7298L4.2723 13.7286C4.61636 13.6925 4.90206 13.6626 5.15623 13.5826C5.22827 13.5531 5.29751 13.4621 5.35069 13.3923C5.35765 13.3832 5.36433 13.3744 5.37071 13.3662L5.57986 13.3054C5.34551 11.6836 5.74207 10.092 6.59893 8.80342L6.43887 8.66054C6.43775 8.65372 6.4366 8.64593 6.43532 8.63734C6.42497 8.56751 6.40686 8.44538 6.33856 8.37263C6.14216 8.18836 5.89455 8.03553 5.59587 7.85121C5.54725 7.82263 5.50002 7.79753 5.4532 7.77265C5.3635 7.72499 5.27533 7.67813 5.18184 7.60916C5.16019 7.59319 5.1334 7.57116 5.10785 7.55015C5.09768 7.54178 5.0877 7.53358 5.07833 7.52599C5.07717 7.52509 5.07598 7.52428 5.07479 7.52347C5.07346 7.52257 5.07214 7.52167 5.07086 7.52065C4.83126 7.32976 4.77621 7.00039 4.94814 6.7849C5.04486 6.66369 5.19265 6.60371 5.34617 6.60896C5.46557 6.61305 5.58921 6.6566 5.69404 6.74012C5.70327 6.74741 5.71341 6.75533 5.72389 6.76352C5.7521 6.78555 5.78282 6.80954 5.80502 6.82862C5.89373 6.90487 5.95952 6.98051 6.02656 7.0576C6.06086 7.09703 6.09549 7.13684 6.13368 7.1773L6.14244 7.18619C6.38482 7.43219 6.58618 7.63656 6.80702 7.7851C6.90882 7.84435 6.99012 7.83153 7.06807 7.81923C7.08 7.81735 7.09184 7.81549 7.10367 7.81389C7.13236 7.83507 7.22885 7.90425 7.28401 7.94185C8.13401 7.04067 9.25045 6.37321 10.5472 6.07901C10.8485 6.01063 11.1502 5.9652 11.4499 5.94039L11.4617 5.72926C11.5282 5.66493 11.6027 5.5724 11.6239 5.47121C11.6454 5.20473 11.6109 4.91817 11.5692 4.57312L11.5684 4.56591C11.5605 4.51054 11.5508 4.45835 11.5412 4.40664C11.5227 4.30639 11.5044 4.20792 11.5001 4.09141C11.4992 4.06668 11.4998 4.03547 11.5004 4.00492C11.5007 3.99072 11.501 3.97665 11.5011 3.96345C11.5011 3.96125 11.5009 3.95908 11.5006 3.95691C11.5004 3.95449 11.5001 3.95207 11.5001 3.94959Z" fill="white"/>
</svg>
