<svg width="24" height="24" viewBox="0 0 24 24" fill="none" xmlns="http://www.w3.org/2000/svg">
<circle cx="12" cy="12" r="9" fill="white"/>
<path d="M11.2258 9.53582L11.3742 6.91803C11.1971 6.93947 11.0195 6.9694 10.8417 7.00973C9.86851 7.23053 9.02409 7.70992 8.3639 8.35861L10.512 9.88023L10.5162 9.8781C10.589 9.93121 10.6785 9.96234 10.7755 9.96234C11.0123 9.96234 11.2052 9.77534 11.2152 9.54115L11.2258 9.53582Z" fill="#326CE5"/>
<path d="M15.618 8.35968C14.8128 7.57176 13.762 7.05767 12.6259 6.91803L12.7742 9.53155L12.7763 9.53262C12.7801 9.62258 12.8119 9.71168 12.8724 9.78747C13.02 9.97245 13.2869 10.0068 13.4763 9.8685L13.4838 9.8717L15.618 8.35968Z" fill="#326CE5"/>
<path d="M9.54624 11.0894L7.58493 9.33642C7.00284 10.284 6.72708 11.4205 6.85504 12.5897L9.3691 11.8646L9.37124 11.8561C9.45815 11.8324 9.53911 11.7815 9.59959 11.7058C9.74724 11.5207 9.72114 11.2539 9.5441 11.1001L9.54624 11.0894Z" fill="#326CE5"/>
<path d="M17.0436 10.9082C16.9122 10.3366 16.6916 9.80947 16.4002 9.33748L14.4495 11.082L14.4506 11.0873C14.3826 11.1464 14.3324 11.2263 14.3108 11.3208C14.2581 11.5515 14.3972 11.7815 14.6235 11.8433L14.6256 11.854L17.1525 12.5812C17.206 12.0365 17.1734 11.4728 17.0436 10.9082Z" fill="#326CE5"/>
<path d="M12.4007 11.2248H11.5972L11.0967 11.8476L11.276 12.626L11.9995 12.9736L12.7208 12.627L12.9001 11.8486L12.4007 11.2248Z" fill="#326CE5"/>
<path d="M14.2745 13.3671C14.2413 13.3609 14.2073 13.3579 14.1731 13.3596C14.1162 13.3625 14.0592 13.377 14.0045 13.4033C13.7912 13.506 13.6984 13.7585 13.7911 13.9738L13.7879 13.9781L14.7974 16.4146C15.7704 15.7951 16.4987 14.8695 16.8793 13.801L14.2788 13.3617L14.2745 13.3671Z" fill="#326CE5"/>
<path d="M10.2281 13.7125C10.182 13.5107 10.004 13.373 9.80554 13.3703C9.77719 13.3699 9.74795 13.3724 9.71911 13.3777L9.71484 13.3724L7.13675 13.8096C7.53463 14.9096 8.27842 15.8062 9.21224 16.405L10.211 13.993L10.2036 13.9834C10.2392 13.9007 10.2497 13.807 10.2281 13.7125Z" fill="#326CE5"/>
<path d="M12.1894 14.4707C12.1227 14.4386 12.0526 14.4244 11.9835 14.427C11.8314 14.4326 11.6871 14.5173 11.6111 14.6594H11.6089L10.3412 16.9499C11.2185 17.2486 12.1874 17.3154 13.1594 17.0949C13.3328 17.0555 13.5024 17.0083 13.6673 16.9531L12.3964 14.6584H12.3868C12.3443 14.579 12.2768 14.5127 12.1894 14.4707Z" fill="#326CE5"/>
<path fill-rule="evenodd" clip-rule="evenodd" d="M11.3054 0.156666C11.4968 0.0652974 11.7046 0.0127313 11.9168 0.00205113C12.1837 -0.011433 12.4497 0.0417316 12.6904 0.156666L21.0351 4.13826C21.251 4.24132 21.4408 4.39127 21.5902 4.57698C21.7397 4.76269 21.845 4.97938 21.8984 5.21097L23.96 14.1594C24.0134 14.3911 24.0133 14.6317 23.9599 14.8634C23.9066 15.0951 23.8012 15.3119 23.6516 15.4976L17.8786 22.6739C17.729 22.8594 17.5392 23.0091 17.3233 23.1119C17.1073 23.2147 16.8708 23.268 16.6312 23.2678L7.36993 23.27C7.13027 23.27 6.89367 23.2165 6.67771 23.1135C6.46176 23.0105 6.27199 22.8606 6.1225 22.675L0.347407 15.4998C0.315121 15.4593 0.28485 15.4173 0.256705 15.374C0.140628 15.1965 0.0616495 14.9978 0.0244417 14.7895C-0.0127661 14.5813 -0.00744662 14.3677 0.0400853 14.1616L2.0985 5.2131C2.15186 4.98151 2.25718 4.76482 2.40663 4.57911C2.55608 4.3934 2.74583 4.24345 2.96178 4.14039L11.3054 0.156666ZM11.5001 3.60181C11.5 3.2956 11.7237 3.04736 11.9995 3.04733C12.2753 3.0473 12.4988 3.2956 12.4989 3.60181C12.4989 3.61722 12.4993 3.6345 12.4996 3.65217C12.5003 3.6843 12.5009 3.71773 12.4999 3.74363C12.4956 3.86014 12.4774 3.95862 12.4588 4.05887C12.4492 4.11058 12.4395 4.16276 12.4317 4.21814L12.4285 4.24466C12.3878 4.58111 12.3539 4.86194 12.3751 5.12343C12.3921 5.23931 12.4529 5.29472 12.5111 5.34767C12.5203 5.35608 12.5295 5.36443 12.5384 5.37295C12.5398 5.40912 12.5457 5.52931 12.5501 5.59581C14.138 5.73676 15.6126 6.46236 16.6957 7.59727L16.8857 7.46185C16.8933 7.4623 16.9021 7.46297 16.9117 7.46371C16.9831 7.4692 17.1034 7.47844 17.1887 7.42879C17.4068 7.28208 17.606 7.07993 17.8443 6.83794L17.8621 6.81993C17.8997 6.78005 17.934 6.74081 17.968 6.70194C18.0359 6.62426 18.1024 6.54807 18.1918 6.47125C18.2139 6.45224 18.2442 6.4286 18.2721 6.40677C18.2829 6.39837 18.2933 6.39024 18.3028 6.38274C18.5423 6.19179 18.8756 6.21208 19.0476 6.42753C19.2196 6.64298 19.1644 6.97232 18.9249 7.16328C18.9136 7.17233 18.9013 7.18253 18.8886 7.19299C18.8631 7.21395 18.8364 7.23595 18.815 7.25178C18.7219 7.32047 18.6336 7.36722 18.544 7.41467C18.4966 7.43975 18.4489 7.46502 18.3999 7.49384L18.3995 7.49407C18.101 7.6783 17.8535 7.83106 17.6572 8.01526C17.5768 8.10114 17.5713 8.18308 17.566 8.26166C17.5652 8.2738 17.5644 8.28585 17.5633 8.29783C17.55 8.31007 17.5204 8.33644 17.4876 8.36575C17.4522 8.39734 17.413 8.43233 17.3861 8.45671C17.8166 9.09694 18.1394 9.8236 18.322 10.6181C18.5029 11.4053 18.5311 12.1921 18.4266 12.948L18.6282 13.0067C18.6325 13.0127 18.6373 13.0197 18.6426 13.0274C18.6824 13.086 18.7513 13.1873 18.8438 13.2231C19.0982 13.3032 19.3842 13.3331 19.7286 13.3692L19.7391 13.3703C19.7955 13.3749 19.8492 13.3771 19.9025 13.3792C20.0042 13.3831 20.1042 13.3871 20.2182 13.4087C20.2442 13.4136 20.2776 13.4218 20.3094 13.4297C20.3286 13.4345 20.3472 13.4391 20.3633 13.4428C20.6577 13.5138 20.8467 13.7842 20.7859 14.0506C20.7251 14.317 20.4375 14.4789 20.1414 14.4152C20.1403 14.415 20.139 14.4149 20.1377 14.4147C20.1364 14.4146 20.135 14.4144 20.1339 14.4142C20.1306 14.4134 20.1276 14.4118 20.1243 14.411C20.1094 14.4077 20.0931 14.4044 20.0767 14.4012C20.0477 14.3953 20.0183 14.3894 19.9952 14.3833C19.8829 14.3532 19.7909 14.3134 19.6975 14.273C19.6488 14.2519 19.5996 14.2307 19.547 14.2105L19.5319 14.2051C19.2082 14.0891 18.9388 13.9925 18.6763 13.9546C18.5594 13.9454 18.492 13.9922 18.4274 14.037C18.4172 14.0442 18.407 14.0512 18.3967 14.058C18.3602 14.0507 18.2479 14.0309 18.1833 14.0207C17.7047 15.5235 16.6858 16.8247 15.3043 17.6398C15.3119 17.6582 15.3213 17.6834 15.3311 17.7097C15.3519 17.7654 15.3746 17.8266 15.3875 17.8413C15.3831 17.8529 15.3785 17.8645 15.3738 17.8761C15.3445 17.9487 15.3141 18.0239 15.3491 18.1356C15.446 18.3868 15.6028 18.6323 15.7919 18.9279C15.8232 18.9746 15.8548 19.0176 15.8861 19.0602C15.9463 19.1422 16.0054 19.2228 16.0598 19.3256C16.0735 19.3516 16.0904 19.3873 16.1058 19.4199C16.1126 19.4342 16.119 19.4479 16.1248 19.46C16.2533 19.7343 16.159 20.0504 15.9125 20.169C15.664 20.2887 15.3551 20.1623 15.2221 19.8865C15.2164 19.8747 15.21 19.8618 15.2034 19.8485C15.188 19.8176 15.1715 19.7843 15.1602 19.7585C15.1133 19.6512 15.0867 19.554 15.0596 19.4551C15.0458 19.4048 15.0319 19.3539 15.0151 19.3011L15.0104 19.2874C14.8991 18.9615 14.8068 18.691 14.6725 18.4619C14.6065 18.3644 14.5275 18.3406 14.4519 18.3179C14.4404 18.3144 14.4289 18.311 14.4175 18.3073C14.4093 18.2932 14.3895 18.2574 14.368 18.2183C14.3478 18.1818 14.3261 18.1425 14.3108 18.1153C14.0349 18.2195 13.7495 18.3063 13.4539 18.3734C12.1581 18.6674 10.8609 18.5481 9.70203 18.1036L9.58892 18.3083C9.50473 18.3309 9.42352 18.3537 9.37371 18.4131C9.24588 18.5655 9.17203 18.7826 9.09356 19.0134C9.06037 19.111 9.02635 19.211 8.98708 19.3096C8.97001 19.3633 8.95603 19.415 8.94216 19.4662C8.91561 19.5642 8.88951 19.6606 8.84302 19.767C8.8323 19.7916 8.81671 19.8227 8.80188 19.8522C8.79455 19.8668 8.78741 19.881 8.78113 19.8939C8.78106 19.8941 8.7811 19.8943 8.78113 19.8945C8.78117 19.8947 8.7812 19.8948 8.78113 19.895C8.78094 19.8954 8.78027 19.8957 8.78007 19.8961C8.64679 20.171 8.33883 20.2969 8.09073 20.1776C7.84417 20.059 7.75002 19.7429 7.87838 19.4685C7.88529 19.4542 7.89301 19.4375 7.90097 19.4203C7.91499 19.39 7.9298 19.358 7.9424 19.3341C7.99704 19.2308 8.05652 19.1494 8.11702 19.0667C8.148 19.0243 8.17924 18.9816 8.21024 18.9353C8.3993 18.6398 8.56534 18.3746 8.66227 18.1235C8.68662 18.04 8.65056 17.9258 8.61787 17.8413L8.70857 17.6238C7.37925 16.8367 6.32943 15.5823 5.82849 14.0303L5.61081 14.0676C5.6042 14.0639 5.59684 14.0597 5.58881 14.055C5.52596 14.0186 5.42251 13.9586 5.32376 13.9663C5.06099 14.0043 4.79136 14.101 4.46731 14.2171L4.45301 14.2222C4.40126 14.2421 4.35289 14.2628 4.30497 14.2834C4.21068 14.3239 4.11811 14.3636 4.00484 14.3939C3.97926 14.4008 3.94584 14.4078 3.91384 14.4146C3.90068 14.4173 3.88775 14.4201 3.87572 14.4227C3.87411 14.4231 3.87258 14.4237 3.87106 14.4243C3.86945 14.4249 3.86783 14.4255 3.86611 14.4259C3.865 14.4262 3.86368 14.4263 3.86236 14.4264C3.86103 14.4266 3.85972 14.4267 3.85864 14.427C3.56253 14.4908 3.27501 14.3287 3.21412 14.0623C3.15325 13.7959 3.34234 13.5256 3.63669 13.4545C3.63779 13.4542 3.63909 13.4538 3.6404 13.4534C3.64171 13.453 3.64302 13.4526 3.64416 13.4524C3.64483 13.4522 3.64548 13.452 3.64613 13.4519C3.64689 13.4517 3.64764 13.4515 3.64843 13.4513C3.661 13.4484 3.67461 13.445 3.68854 13.4416C3.72095 13.4338 3.75506 13.4254 3.78181 13.4204C3.89578 13.3988 3.99583 13.3949 4.09744 13.3909C4.15076 13.3888 4.20452 13.3867 4.26094 13.382L4.2723 13.3808C4.61636 13.3448 4.90206 13.3148 5.15623 13.2348C5.22827 13.2053 5.29751 13.1144 5.35069 13.0445C5.35765 13.0354 5.36433 13.0266 5.37071 13.0184L5.57986 12.9576C5.34551 11.3359 5.74207 9.74421 6.59893 8.45565L6.43887 8.31276C6.43775 8.30594 6.4366 8.29815 6.43532 8.28956C6.42497 8.21973 6.40686 8.09761 6.33856 8.02486C6.14216 7.84059 5.89455 7.68775 5.59587 7.50343C5.54725 7.47485 5.50002 7.44975 5.4532 7.42488C5.3635 7.37721 5.27533 7.33036 5.18184 7.26138C5.16019 7.24541 5.1334 7.22338 5.10785 7.20237C5.09768 7.194 5.0877 7.1858 5.07833 7.17821C5.07717 7.17731 5.07598 7.1765 5.07479 7.17569C5.07346 7.17479 5.07214 7.17389 5.07086 7.17288C4.83126 6.98198 4.77621 6.65262 4.94814 6.43712C5.04486 6.31591 5.19265 6.25593 5.34617 6.26118C5.46557 6.26527 5.58921 6.30882 5.69404 6.39234C5.70327 6.39963 5.71341 6.40755 5.72389 6.41574C5.7521 6.43777 5.78282 6.46176 5.80502 6.48084C5.89373 6.55709 5.95952 6.63273 6.02656 6.70982C6.06086 6.74925 6.09549 6.78906 6.13368 6.82953L6.14244 6.83842C6.38482 7.08441 6.58618 7.28878 6.80702 7.43732C6.90882 7.49657 6.99012 7.48375 7.06807 7.47146C7.08 7.46958 7.09184 7.46771 7.10367 7.46611C7.13236 7.4873 7.22885 7.55647 7.28401 7.59407C8.13401 6.69289 9.25045 6.02543 10.5472 5.73123C10.8485 5.66286 11.1502 5.61742 11.4499 5.59261L11.4617 5.38148C11.5282 5.31716 11.6027 5.22462 11.6239 5.12343C11.6454 4.85695 11.6109 4.57039 11.5692 4.22535L11.5684 4.21814C11.5605 4.16276 11.5508 4.11058 11.5412 4.05886C11.5227 3.95862 11.5044 3.86014 11.5001 3.74363C11.4992 3.7189 11.4998 3.68769 11.5004 3.65714C11.5007 3.64294 11.501 3.62888 11.5011 3.61567C11.5011 3.61347 11.5009 3.6113 11.5006 3.60914C11.5004 3.60671 11.5001 3.60429 11.5001 3.60181Z" fill="#326CE5"/>
</svg>
