<svg width="24" height="24" viewBox="0 0 24 24" fill="none" xmlns="http://www.w3.org/2000/svg">
<g clip-path="url(#clip0_1235_1289)">
<path d="M13.7575 2.67496C12.7411 1.47987 11.8658 0.266097 11.687 0.0140051C11.6682 -0.00466837 11.64 -0.00466837 11.6211 0.0140051C11.4423 0.266097 10.5671 1.47987 9.55067 2.67496C0.826454 13.7016 10.9247 21.143 10.9247 21.143L11.0094 21.199C11.0847 22.3474 11.2729 24 11.2729 24H11.6494H12.0258C12.0258 24 12.2141 22.3567 12.2894 21.199L12.374 21.1336C12.3835 21.143 22.4818 13.7016 13.7575 2.67496ZM11.6494 20.9749C11.6494 20.9749 11.1976 20.5921 11.0753 20.3961V20.3773L11.6211 8.37036C11.6211 8.33301 11.6776 8.33301 11.6776 8.37036L12.2235 20.3773V20.3961C12.1011 20.5921 11.6494 20.9749 11.6494 20.9749Z" fill="#0D813E"/>
</g>
<defs>
<clipPath id="clip0_1235_1289">
<rect width="24" height="24" fill="white"/>
</clipPath>
</defs>
</svg>
