<svg width="24" height="24" viewBox="0 0 24 24" fill="none" xmlns="http://www.w3.org/2000/svg">
<path d="M10.6174 6.87187e-05C7.9838 6.87187e-05 5.64405 1.69053 4.8285 4.18561C3.99155 4.35759 3.20095 4.70528 2.5093 5.20556C1.81766 5.70584 1.24083 6.34722 0.817204 7.08703C-0.50362 9.36267 -0.202014 12.2235 1.56746 14.174C1.02116 15.8077 1.20866 17.5955 2.08112 19.0749C3.39385 21.3586 6.03521 22.5289 8.61995 21.9844C9.18587 22.621 9.88146 23.1301 10.6603 23.4777C11.4392 23.8253 12.2835 24.0033 13.1368 24C15.7704 24 18.1101 22.3095 18.9257 19.8144C20.6215 19.4648 22.081 18.4082 22.9289 16.913C24.2578 14.6374 23.9562 11.7765 22.187 9.82603V9.81797C22.4569 9.01043 22.5506 8.15476 22.4621 7.30819C22.3735 6.46162 22.1046 5.64366 21.6733 4.90902C20.3603 2.63338 17.7187 1.46273 15.1423 2.00731C14.5738 1.37228 13.8763 0.864934 13.0963 0.518889C12.3162 0.172844 11.4712 -0.00400221 10.6174 6.87187e-05ZM10.6174 1.56065L10.6093 1.56871C11.6692 1.56871 12.6884 1.93445 13.5037 2.60919C13.4711 2.62532 13.4058 2.66592 13.3569 2.6904L8.56303 5.44553C8.31834 5.58376 8.17158 5.84381 8.17158 6.12834V12.5976L6.10888 11.4111V6.06325C6.10842 4.87037 6.58299 3.72608 7.42835 2.88177C8.2737 2.03746 9.4207 1.56248 10.6174 1.56065ZM16.3924 3.44405C17.1868 3.44253 17.9675 3.6501 18.6557 4.04579C19.3439 4.44147 19.915 5.01125 20.3115 5.69751C20.8332 6.60783 21.0288 7.6725 20.8494 8.70463C20.8168 8.68015 20.7518 8.6479 20.7107 8.62342L15.9168 5.85994C15.7962 5.79195 15.66 5.75622 15.5215 5.75622C15.3829 5.75622 15.2467 5.79195 15.1261 5.85994L9.50858 9.09456V6.72129L14.1476 4.04738C14.8297 3.65318 15.6039 3.44499 16.3924 3.44376V3.44405ZM4.53527 5.90054V11.5816C4.53527 11.8661 4.68203 12.1181 4.92672 12.2644L10.5359 15.4909L8.46481 16.6855L3.83384 14.0196C2.79892 13.4217 2.04427 12.4389 1.73554 11.287C1.42681 10.135 1.58923 8.90796 2.18714 7.87524C2.71459 6.96387 3.54529 6.26546 4.53527 5.90054ZM15.281 7.30647L19.92 9.97233C22.0807 11.2158 22.8142 13.9629 21.5667 16.1167L21.5748 16.1248C21.045 17.0351 20.2133 17.734 19.2267 18.0917V12.4104C19.2267 12.1259 19.0799 11.8658 18.8352 11.7279L13.218 8.49296L15.281 7.30647ZM11.8729 9.26533L14.2375 10.6307V13.3532L11.8729 14.7186L9.50858 13.3532V10.6307L11.8729 9.26533ZM15.5907 11.4111L17.6534 12.5976V17.9373C17.6534 20.4244 15.6314 22.44 13.1449 22.44V22.4319C12.093 22.4319 11.0657 22.0662 10.2586 21.3917C10.2912 21.3756 10.3646 21.3347 10.4053 21.3102L15.1992 18.5551C15.4439 18.4168 15.5988 18.1568 15.5904 17.8723L15.5907 11.4111ZM14.2453 14.9058V17.2787L9.60623 19.9446C7.44559 21.18 4.68983 20.4486 3.44239 18.3028H3.45047C2.92064 17.4005 2.73286 16.3278 2.91226 15.2957C2.94491 15.3202 3.0102 15.3524 3.05093 15.3769L7.84484 18.1404C7.96545 18.2084 8.10164 18.2441 8.2402 18.2441C8.37875 18.2441 8.51494 18.2084 8.63555 18.1404L14.2453 14.9058Z" fill="white"/>
</svg>
