<svg width="28" height="28" viewBox="0 0 28 28" fill="none" xmlns="http://www.w3.org/2000/svg">
<path fill-rule="evenodd" clip-rule="evenodd" d="M14 5.30693e-07C11.2311 5.30693e-07 8.52431 0.821087 6.22202 2.35943C3.91973 3.89776 2.12532 6.08427 1.06569 8.64243C0.00606512 11.2006 -0.27118 14.0155 0.269013 16.7313C0.809206 19.447 2.14258 21.9416 4.10052 23.8995C6.05845 25.8574 8.55299 27.1908 11.2687 27.731C13.9845 28.2712 16.7994 27.9939 19.3576 26.9343C21.9157 25.8747 24.1022 24.0803 25.6406 21.778C27.1789 19.4757 28 16.7689 28 14C28.0005 12.1614 27.6387 10.3406 26.9354 8.64183C26.232 6.94305 25.2007 5.39949 23.9006 4.09937C22.6005 2.79925 21.057 1.76804 19.3582 1.06466C17.6594 0.361272 15.8386 -0.000505775 14 5.30693e-07Z" fill="#5F1F9A"/>
<path d="M3.93453 12.1002L8.13493 16.3045C8.17662 16.3477 8.22659 16.3821 8.28188 16.4056C8.33717 16.4291 8.39661 16.4412 8.45668 16.4412C8.51675 16.4412 8.57622 16.4291 8.63151 16.4056C8.68679 16.3821 8.73677 16.3477 8.77846 16.3045L12.9711 12.1002C13.0549 12.0164 13.102 11.9027 13.102 11.7842C13.102 11.6657 13.0549 11.5521 12.9711 11.4682L8.76689 7.26786C8.68307 7.18408 8.56943 7.13702 8.45092 7.13702C8.33241 7.13702 8.21875 7.18408 8.13493 7.26786L3.93453 11.4682C3.85076 11.5521 3.80371 11.6657 3.80371 11.7842C3.80371 11.9027 3.85076 12.0164 3.93453 12.1002Z" fill="white"/>
<path d="M14.316 21.8497L18.5164 17.6494C18.6002 17.5655 18.6473 17.4519 18.6473 17.3334C18.6473 17.2148 18.6002 17.1012 18.5164 17.0174L14.316 12.8131C14.2322 12.7294 14.1185 12.6823 14 12.6823C13.8815 12.6823 13.7679 12.7294 13.684 12.8131L9.47982 17.0174C9.39604 17.1012 9.34897 17.2148 9.34897 17.3334C9.34897 17.4519 9.39604 17.5655 9.47982 17.6494L13.684 21.8497C13.7679 21.9335 13.8815 21.9806 14 21.9806C14.1185 21.9806 14.2322 21.9335 14.316 21.8497Z" fill="white"/>
<path d="M19.8613 16.3045L24.0617 12.1002C24.1036 12.059 24.137 12.0098 24.1597 11.9555C24.1824 11.9013 24.1942 11.8431 24.1942 11.7842C24.1942 11.7254 24.1824 11.6672 24.1597 11.6129C24.137 11.5587 24.1036 11.5095 24.0617 11.4682L19.8613 7.26786C19.7775 7.18408 19.6638 7.13702 19.5453 7.13702C19.4268 7.13702 19.3132 7.18408 19.2293 7.26786L15.0251 11.4682C14.9413 11.5521 14.8943 11.6657 14.8943 11.7842C14.8943 11.9027 14.9413 12.0164 15.0251 12.1002L19.2293 16.3045C19.3132 16.3882 19.4268 16.4353 19.5453 16.4353C19.6638 16.4353 19.7775 16.3882 19.8613 16.3045Z" fill="white"/>
</svg>
