<svg width="95" height="25" viewBox="0 0 95 25" fill="none" xmlns="http://www.w3.org/2000/svg">
<path fill-rule="evenodd" clip-rule="evenodd" d="M5.53768 2.10663C7.58675 0.733113 9.99579 4.73833e-07 12.4602 4.73833e-07C14.0966 -0.000451585 15.7171 0.322564 17.229 0.950587C18.741 1.57861 20.1147 2.49933 21.2719 3.66015C22.429 4.82098 23.3468 6.19915 23.9728 7.71592C24.5988 9.2327 24.9208 10.8584 24.9204 12.5C24.9204 14.9723 24.1896 17.389 22.8204 19.4446C21.4513 21.5002 19.5053 23.1024 17.2285 24.0485C14.9517 24.9946 12.4463 25.2421 10.0293 24.7598C7.61227 24.2775 5.3921 23.087 3.64951 21.3388C1.90692 19.5907 0.720204 17.3634 0.239425 14.9386C-0.241354 12.5139 0.00539803 10.0005 0.94848 7.71646C1.89156 5.43238 3.48861 3.48015 5.53768 2.10663Z" fill="#9C24C7"/>
<path d="M29.18 5.45862L33.0967 18.4128C33.1169 18.4928 33.165 18.5629 33.2324 18.6103C33.2998 18.6576 33.3818 18.6791 33.4637 18.6708H35.8062C35.8854 18.6799 35.9651 18.6582 36.0288 18.6102C36.0926 18.5623 36.1357 18.4916 36.1492 18.4128L40.0213 5.45862C40.0762 5.29347 40.0042 5.16273 39.8361 5.16273H38.0698C37.9942 5.15925 37.9195 5.18099 37.8574 5.22456C37.7954 5.26813 37.7495 5.33107 37.7268 5.40357L35.7445 12.2505C35.3638 13.5408 34.935 15.0925 34.6778 16.252H34.6229C34.3829 15.1097 33.961 13.558 33.594 12.2849L31.5705 5.40357C31.5594 5.33082 31.5208 5.26516 31.4626 5.22028C31.4045 5.17541 31.3313 5.15479 31.2584 5.16273H29.3446C29.3095 5.16105 29.2747 5.16923 29.244 5.18633C29.2134 5.20343 29.188 5.22878 29.1709 5.25952C29.1538 5.29027 29.1456 5.32519 29.1472 5.36036C29.1488 5.39554 29.1602 5.42957 29.18 5.45862Z" fill="#9C24C7"/>
<path fill-rule="evenodd" clip-rule="evenodd" d="M48.1257 11.6415V18.4128C48.1295 18.4476 48.1254 18.4828 48.1138 18.5158C48.1023 18.5489 48.0834 18.5789 48.0587 18.6037C48.034 18.6284 48.0041 18.6473 47.9712 18.6589C47.9383 18.6706 47.9031 18.6746 47.8684 18.6708H46.2496C46.2149 18.6746 46.1798 18.6706 46.1468 18.6589C46.1139 18.6473 46.084 18.6284 46.0593 18.6037C46.0346 18.5789 46.0158 18.5489 46.0042 18.5158C45.9926 18.4828 45.9886 18.4476 45.9924 18.4128V17.2051C45.6949 17.7123 45.2702 18.1326 44.7605 18.4242C44.2509 18.7157 43.6741 18.8684 43.0874 18.8669C41.1736 18.8669 39.9595 17.6111 39.9595 15.7703C39.9595 13.9296 41.1736 12.8561 43.8214 12.6737C44.513 12.6217 45.2074 12.6159 45.8998 12.6565V11.731C45.8998 10.5886 45.2756 10.1276 44.2261 10.1276C43.1766 10.1276 42.7924 10.513 42.5284 11.2355C42.4529 11.4385 42.3809 11.4729 42.1854 11.4179L40.5837 11.0119C40.4191 10.9568 40.3642 10.8639 40.4191 10.716C40.714 9.27775 42.0208 8.27995 44.3187 8.27995C46.692 8.27995 48.1257 9.4085 48.1257 11.6415ZM45.8998 15.385V14.1326C45.2686 14.106 44.6364 14.1175 44.0066 14.167C42.8096 14.2977 42.1305 14.7037 42.1305 15.6637C42.1305 16.4929 42.6998 17.0399 43.6739 17.0399C44.7062 17.0296 45.4951 16.4206 45.8998 15.385Z" fill="#9C24C7"/>
<path d="M52.5809 18.4128V12.137C52.9478 11.0876 53.7573 10.365 54.7382 10.365C55.7671 10.365 56.285 11.0325 56.285 12.137V18.4128C56.285 18.5779 56.3741 18.6708 56.5593 18.6708H58.3085C58.3436 18.6768 58.3797 18.6743 58.4136 18.6635C58.4476 18.6526 58.4784 18.6338 58.5036 18.6085C58.5288 18.5832 58.5476 18.5523 58.5584 18.5182C58.5692 18.4842 58.5717 18.448 58.5657 18.4128V11.7688C58.5657 9.70098 57.5162 8.29719 55.5853 8.29719C54.9772 8.30362 54.3802 8.46056 53.8471 8.75406C53.314 9.04757 52.8614 9.46856 52.5294 9.97968V8.72383C52.5312 8.69024 52.5256 8.65667 52.513 8.62549C52.5005 8.5943 52.4812 8.56624 52.4567 8.54329C52.4322 8.52034 52.403 8.50305 52.3711 8.49263C52.3392 8.48221 52.3055 8.47892 52.2722 8.48298H50.5573C50.5238 8.47837 50.4896 8.48125 50.4573 8.49142C50.425 8.50159 50.3954 8.5188 50.3704 8.54181C50.3455 8.56482 50.326 8.59307 50.3133 8.62454C50.3005 8.65601 50.2948 8.68991 50.2967 8.72383V18.4128C50.2967 18.5779 50.3893 18.6708 50.5745 18.6708H52.3236C52.3583 18.6747 52.3935 18.6706 52.4264 18.659C52.4593 18.6474 52.4893 18.6285 52.5139 18.6037C52.5386 18.5789 52.5575 18.5489 52.569 18.5159C52.5806 18.4828 52.5847 18.4476 52.5809 18.4128Z" fill="#9C24C7"/>
<path d="M63.563 6.23263V8.55853H65.5865C65.734 8.55853 65.8266 8.65143 65.8266 8.83378V10.1653C65.8266 10.3477 65.734 10.4234 65.5865 10.4234H63.563V15.5534C63.563 16.2897 63.9677 16.6579 64.7943 16.6579H65.5694C65.6047 16.6525 65.6408 16.6556 65.6747 16.6669C65.7085 16.6782 65.7393 16.6974 65.7644 16.7229C65.7895 16.7484 65.8082 16.7795 65.819 16.8137C65.8298 16.8478 65.8324 16.884 65.8266 16.9194V18.4126C65.8326 18.4479 65.8301 18.484 65.8193 18.5181C65.8085 18.5521 65.7897 18.5831 65.7645 18.6084C65.7393 18.6336 65.7084 18.6525 65.6745 18.6633C65.6405 18.6742 65.6045 18.6767 65.5694 18.6707H64.4273C62.3694 18.6707 61.3405 17.5628 61.3405 15.8665V10.4234H60.0715C60.0365 10.4286 60.0008 10.4255 59.9673 10.4144C59.9337 10.4033 59.9031 10.3844 59.8781 10.3593C59.8531 10.3343 59.8343 10.3036 59.8232 10.2699C59.8121 10.2363 59.8091 10.2004 59.8143 10.1653V8.83378C59.8143 8.65143 59.9069 8.55853 60.0715 8.55853H61.3577V6.23263C61.3551 6.19808 61.36 6.16339 61.372 6.13092C61.3841 6.09844 61.4029 6.06895 61.4273 6.04446C61.4517 6.01996 61.4811 6.00104 61.5135 5.98898C61.5459 5.97692 61.5805 5.97201 61.6149 5.97458H63.3092C63.3436 5.97132 63.3784 5.97578 63.4109 5.98764C63.4434 5.99951 63.4728 6.01848 63.4971 6.04318C63.5214 6.06788 63.5399 6.0977 63.5513 6.13046C63.5627 6.16323 63.5667 6.19813 63.563 6.23263Z" fill="#9C24C7"/>
<path fill-rule="evenodd" clip-rule="evenodd" d="M75.0423 18.4128V11.6415C75.0423 9.4085 73.6087 8.27995 71.2353 8.27995C68.9374 8.27995 67.6273 9.29151 67.3357 10.716C67.2809 10.8639 67.3357 10.9568 67.5004 11.0119L69.1055 11.4179C69.301 11.4729 69.3764 11.4385 69.4484 11.2355C69.7091 10.513 70.0932 10.1276 71.1427 10.1276C72.1922 10.1276 72.8164 10.5886 72.8164 11.731V12.6565C72.124 12.6159 71.4297 12.6217 70.738 12.6737C68.0868 12.8561 66.8762 13.9296 66.8762 15.7703C66.8762 17.6111 68.0868 18.8669 70.0006 18.8669C70.5878 18.8686 71.1652 18.7161 71.6754 18.4246C72.1857 18.133 72.611 17.7126 72.909 17.2051V18.4128C72.9052 18.4476 72.9093 18.4828 72.9209 18.5159C72.9324 18.5489 72.9513 18.5789 72.976 18.6037C73.0006 18.6284 73.0306 18.6473 73.0635 18.659C73.0964 18.6706 73.1316 18.6746 73.1663 18.6708H74.7851C74.8198 18.6746 74.8549 18.6706 74.8879 18.659C74.9208 18.6473 74.9507 18.6284 74.9754 18.6037C75.0001 18.5789 75.0189 18.5489 75.0305 18.5159C75.0421 18.4828 75.0461 18.4476 75.0423 18.4128ZM72.8164 14.1326V15.385C72.4117 16.4206 71.6195 17.0296 70.5905 17.0399C69.6165 17.0399 69.0437 16.4929 69.0437 15.6637C69.0437 14.7037 69.7263 14.2977 70.9198 14.167C71.5508 14.1175 72.1841 14.106 72.8164 14.1326Z" fill="#9C24C7"/>
<path fill-rule="evenodd" clip-rule="evenodd" d="M85.64 19.3726C85.64 21.0929 84.3504 22.5449 80.8761 22.5449C77.7276 22.5449 76.5341 21.4404 76.5341 19.8164C76.5341 18.9494 77.0486 18.1374 78.098 17.6935C77.8852 17.537 77.71 17.3345 77.5853 17.1011C77.4607 16.8677 77.3898 16.6093 77.3778 16.3448C77.3794 16.023 77.4787 15.7093 77.6625 15.4456C77.8464 15.1819 78.106 14.9806 78.4067 14.8687C77.9069 14.5837 77.495 14.1661 77.2161 13.6617C76.9372 13.1574 76.8021 12.5858 76.8256 12.0095C76.8256 9.9795 78.074 8.4828 80.7801 8.4828H85.3416C85.371 8.48449 85.3997 8.49216 85.4259 8.50535C85.4522 8.51854 85.4755 8.53697 85.4945 8.55952C85.5134 8.58206 85.5276 8.60824 85.5361 8.63647C85.5446 8.66469 85.5473 8.69436 85.544 8.72365V10.0173C85.546 10.0518 85.5407 10.0862 85.5285 10.1184C85.5162 10.1506 85.4974 10.1799 85.4731 10.2043C85.4488 10.2286 85.4196 10.2476 85.3875 10.2598C85.3554 10.2721 85.321 10.2774 85.2867 10.2754H83.6851C83.9809 10.529 84.2157 10.8464 84.3719 11.2039C84.5281 11.5614 84.6017 11.9497 84.5871 12.3398C84.5871 14.0946 83.3558 15.4364 80.8144 15.4364H80.1696C79.5625 15.4364 79.3053 15.6979 79.3053 16.0454C79.3053 16.3929 79.5831 16.62 80.1696 16.62H82.2686C84.6454 16.6407 85.64 17.8036 85.64 19.3726ZM83.469 19.5756C83.469 18.9838 83.126 18.4298 81.9428 18.4298H80.0839C78.9966 18.4298 78.6125 19.0044 78.6125 19.5928C78.6125 20.4426 79.2985 20.9966 81.0133 20.9966C82.7282 20.9966 83.469 20.3876 83.469 19.5756ZM78.8835 12.0095C78.8835 13.1174 79.5282 13.8537 80.7801 13.8537C81.9565 13.8537 82.6184 13.1897 82.6184 12.0267C82.6184 10.9188 82.0114 10.1997 80.7595 10.1997C79.5077 10.1997 78.8835 10.8638 78.8835 12.0095Z" fill="#9C24C7"/>
<path fill-rule="evenodd" clip-rule="evenodd" d="M88.8025 14.8689V14.2805H94.537C94.8868 14.2805 95 14.1326 95 13.8367V12.2849C95 10.0003 93.6041 8.27995 90.8843 8.27995C88.0514 8.27995 86.6143 10.0175 86.6143 12.3228V14.831C86.6143 17.1948 88.1063 18.8738 90.9186 18.8738C92.8496 18.8738 94.266 18.0618 94.8731 16.7165C94.9863 16.4929 94.9657 16.3449 94.7085 16.2176L93.5492 15.6258C93.3091 15.5157 93.22 15.5536 93.0725 15.791C92.7227 16.4757 92.3111 17.009 90.9392 17.009C89.4884 16.9918 88.8025 16.1798 88.8025 14.8689ZM88.8025 12.7666V12.2299C88.8025 10.9774 89.4576 10.1448 90.8295 10.1448C92.2013 10.1448 92.8873 10.9774 92.8873 12.2299V12.7666H88.8025Z" fill="#9C24C7"/>
<path d="M3.50169 10.8037L7.24009 14.5575C7.2772 14.5961 7.32168 14.6268 7.37088 14.6478C7.42009 14.6688 7.473 14.6796 7.52646 14.6796C7.57992 14.6796 7.63285 14.6688 7.68206 14.6478C7.73126 14.6268 7.77574 14.5961 7.81285 14.5575L11.5444 10.8037C11.6189 10.7289 11.6608 10.6274 11.6608 10.5216C11.6608 10.4158 11.6189 10.3143 11.5444 10.2395L7.80255 6.48914C7.72795 6.41434 7.62681 6.37232 7.52133 6.37232C7.41586 6.37232 7.3147 6.41434 7.24009 6.48914L3.50169 10.2395C3.42713 10.3143 3.38525 10.4158 3.38525 10.5216C3.38525 10.6274 3.42713 10.7289 3.50169 10.8037Z" fill="white"/>
<path d="M12.7414 19.5087L16.4798 15.7583C16.5543 15.6835 16.5962 15.582 16.5962 15.4762C16.5962 15.3704 16.5543 15.2689 16.4798 15.1941L12.7414 11.4403C12.6668 11.3655 12.5656 11.3235 12.4601 11.3235C12.3546 11.3235 12.2535 11.3655 12.1789 11.4403L8.43706 15.1941C8.3625 15.2689 8.32061 15.3704 8.32061 15.4762C8.32061 15.582 8.3625 15.6835 8.43706 15.7583L12.1789 19.5087C12.2535 19.5835 12.3546 19.6255 12.4601 19.6255C12.5656 19.6255 12.6668 19.5835 12.7414 19.5087Z" fill="white"/>
<path d="M17.6767 14.5575L21.4151 10.8037C21.4525 10.7669 21.4821 10.723 21.5023 10.6746C21.5226 10.6261 21.533 10.5741 21.533 10.5216C21.533 10.4691 21.5226 10.4171 21.5023 10.3686C21.4821 10.3202 21.4525 10.2763 21.4151 10.2395L17.6767 6.48914C17.6021 6.41434 17.501 6.37232 17.3955 6.37232C17.29 6.37232 17.1889 6.41434 17.1143 6.48914L13.3724 10.2395C13.2979 10.3143 13.256 10.4158 13.256 10.5216C13.256 10.6274 13.2979 10.7289 13.3724 10.8037L17.1143 14.5575C17.1889 14.6323 17.29 14.6743 17.3955 14.6743C17.501 14.6743 17.6021 14.6323 17.6767 14.5575Z" fill="white"/>
</svg>
