<svg width="717" height="188" viewBox="0 0 717 188" fill="none" xmlns="http://www.w3.org/2000/svg">
<path fill-rule="evenodd" clip-rule="evenodd" d="M94.0415 3.56322e-06C75.4419 3.56322e-06 57.26 5.51301 41.7949 15.8419C26.3299 26.1707 14.2763 40.8515 7.15853 58.0278C0.0407409 75.204 -1.82159 94.1042 1.80703 112.338C5.43564 130.573 14.3923 147.322 27.5442 160.468C40.6962 173.614 57.4526 182.567 75.6949 186.194C93.9372 189.821 112.846 187.959 130.03 180.845C147.214 173.73 161.901 161.682 172.234 146.224C182.568 130.765 188.083 112.591 188.083 94C188.087 81.6548 185.656 69.4299 180.932 58.0237C176.207 46.6176 169.28 36.2537 160.547 27.5244C151.813 18.795 141.445 11.8712 130.034 7.14842C118.623 2.42568 106.392 -0.00339592 94.0415 3.56322e-06ZM26.4289 81.2441L54.644 109.473C54.9241 109.763 55.2598 109.994 55.6312 110.152C56.0025 110.309 56.4019 110.391 56.8054 110.391C57.2089 110.391 57.6084 110.309 57.9797 110.152C58.3511 109.994 58.6868 109.763 58.9669 109.473L87.1302 81.2441C87.6929 80.6813 88.0089 79.9182 88.0089 79.1225C88.0089 78.3268 87.6929 77.5636 87.1302 77.0008L58.8891 48.7983C58.3261 48.2358 57.5627 47.9198 56.7667 47.9198C55.9706 47.9198 55.2071 48.2358 54.644 48.7983L26.4289 77.0008C25.8662 77.5636 25.5502 78.3268 25.5502 79.1225C25.5502 79.9182 25.8662 80.6813 26.4289 81.2441ZM96.1641 146.705L124.379 118.503C124.942 117.94 125.258 117.177 125.258 116.381C125.258 115.585 124.942 114.822 124.379 114.259L96.1641 86.0308C95.6011 85.4683 94.8376 85.1524 94.0415 85.1524C93.2455 85.1524 92.482 85.4683 91.9189 86.0308L63.678 114.259C63.1153 114.822 62.7991 115.585 62.7991 116.381C62.7991 117.177 63.1153 117.94 63.678 118.503L91.9189 146.705C92.482 147.268 93.2455 147.584 94.0415 147.584C94.8376 147.584 95.6011 147.268 96.1641 146.705ZM161.628 81.2441L133.413 109.473C132.85 110.035 132.087 110.351 131.291 110.351C130.495 110.351 129.731 110.035 129.168 109.473L100.927 81.2441C100.364 80.6813 100.048 79.9182 100.048 79.1225C100.048 78.3268 100.364 77.5636 100.927 77.0008L129.168 48.7983C129.731 48.2358 130.495 47.9198 131.291 47.9198C132.087 47.9198 132.85 48.2358 133.413 48.7983L161.628 77.0008C161.91 77.2777 162.134 77.6079 162.287 77.9722C162.439 78.3365 162.518 78.7275 162.518 79.1225C162.518 79.5175 162.439 79.9085 162.287 80.2727C162.134 80.637 161.91 80.9672 161.628 81.2441Z" fill="white"/>
<path d="M249.793 138.464L220.232 41.0489C220.082 40.8303 219.997 40.5744 219.985 40.3099C219.973 40.0454 220.035 39.7828 220.164 39.5516C220.293 39.3204 220.484 39.1298 220.715 39.0012C220.947 38.8726 221.21 38.8111 221.475 38.8237H235.919C236.469 38.764 237.021 38.9191 237.46 39.2565C237.899 39.594 238.191 40.0878 238.274 40.6349L253.546 92.3827C256.316 101.956 259.5 113.625 261.312 122.215H261.726C263.668 113.496 266.903 101.827 269.777 92.124L284.738 40.6349C284.909 40.0897 285.256 39.6163 285.724 39.2887C286.192 38.9611 286.756 38.7976 287.327 38.8237H300.658C301.926 38.8237 302.47 39.8069 302.056 41.0489L272.831 138.464C272.729 139.057 272.404 139.588 271.923 139.949C271.442 140.31 270.84 140.473 270.243 140.405H252.563C251.945 140.467 251.325 140.305 250.817 139.949C250.309 139.593 249.945 139.066 249.793 138.464Z" fill="white"/>
<path fill-rule="evenodd" clip-rule="evenodd" d="M363.222 87.5441V138.464C363.251 138.726 363.22 138.991 363.133 139.239C363.045 139.488 362.903 139.713 362.717 139.9C362.531 140.086 362.305 140.228 362.056 140.315C361.808 140.403 361.543 140.433 361.281 140.404H349.063C348.801 140.433 348.536 140.403 348.287 140.315C348.039 140.228 347.813 140.086 347.626 139.9C347.44 139.713 347.298 139.488 347.211 139.239C347.123 138.991 347.093 138.726 347.121 138.464V129.382C344.876 133.197 341.671 136.357 337.824 138.55C333.978 140.742 329.624 141.89 325.196 141.879C310.752 141.879 301.589 132.435 301.589 118.593C301.589 104.75 310.752 96.6775 330.736 95.3062C335.956 94.915 341.197 94.8718 346.422 95.1769V88.2168C346.422 79.6266 341.711 76.1595 333.79 76.1595C325.869 76.1595 322.97 79.0574 320.977 84.4909C320.408 86.0175 319.864 86.2762 318.389 85.8623L306.3 82.8091C305.058 82.3952 304.643 81.6966 305.058 80.584C307.284 69.7687 317.146 62.2652 334.489 62.2652C352.402 62.2652 363.222 70.7519 363.222 87.5441ZM346.422 115.695V106.277C341.659 106.077 336.887 106.163 332.134 106.536C323.1 107.519 317.974 110.572 317.974 117.791C317.974 124.026 322.271 128.14 329.623 128.14C337.414 128.063 343.368 123.483 346.422 115.695Z" fill="white"/>
<path d="M396.847 91.2701V138.464C396.876 138.726 396.845 138.991 396.758 139.239C396.671 139.488 396.528 139.714 396.342 139.9C396.156 140.086 395.93 140.228 395.681 140.316C395.433 140.403 395.168 140.433 394.906 140.405H381.704C380.306 140.405 379.607 139.706 379.607 138.464V65.6032C379.594 65.3481 379.636 65.0932 379.733 64.8565C379.829 64.6199 379.976 64.4075 380.164 64.2344C380.352 64.0614 380.576 63.932 380.82 63.8555C381.064 63.779 381.322 63.7573 381.575 63.792H394.517C394.769 63.7615 395.024 63.7863 395.264 63.8646C395.505 63.943 395.725 64.073 395.91 64.2456C396.095 64.4182 396.24 64.6291 396.335 64.8637C396.43 65.0982 396.472 65.3506 396.459 65.6032V75.0472C398.964 71.2036 402.38 68.0377 406.404 65.8305C410.427 63.6234 414.934 62.4432 419.523 62.3948C434.096 62.3948 442.017 72.9514 442.017 88.5016V138.464C442.062 138.729 442.043 139.001 441.962 139.257C441.88 139.513 441.738 139.746 441.548 139.936C441.358 140.126 441.125 140.268 440.869 140.349C440.613 140.431 440.341 140.45 440.076 140.405H426.874C425.476 140.405 424.803 139.706 424.803 138.464V91.2701C424.803 82.9646 420.895 77.9451 413.129 77.9451C405.726 77.9451 399.617 83.3786 396.847 91.2701Z" fill="white"/>
<path d="M479.733 46.8694V64.3601H495.006C496.119 64.3601 496.818 65.0587 496.818 66.4301V76.4433C496.818 77.8146 496.119 78.3838 495.006 78.3838H479.733V116.962C479.733 122.499 482.788 125.267 489.026 125.267H494.876C495.143 125.227 495.415 125.25 495.671 125.335C495.927 125.42 496.159 125.565 496.348 125.756C496.537 125.948 496.679 126.182 496.76 126.439C496.842 126.695 496.862 126.968 496.818 127.234V138.463C496.863 138.728 496.844 139 496.762 139.256C496.681 139.512 496.539 139.745 496.349 139.935C496.159 140.125 495.926 140.267 495.669 140.348C495.413 140.43 495.141 140.449 494.876 140.404H486.256C470.725 140.404 462.96 132.072 462.96 119.316V78.3838H453.382C453.118 78.4231 452.848 78.4 452.595 78.3164C452.341 78.2328 452.111 78.0909 451.922 77.9023C451.734 77.7136 451.592 77.4833 451.508 77.23C451.424 76.9766 451.401 76.7072 451.441 76.4433V66.4301C451.441 65.0587 452.139 64.3601 453.382 64.3601H463.089V46.8694C463.07 46.6096 463.107 46.3487 463.197 46.1045C463.288 45.8603 463.43 45.6385 463.615 45.4543C463.799 45.2701 464.021 45.1278 464.265 45.0371C464.509 44.9464 464.77 44.9095 465.03 44.9288H477.818C478.078 44.9043 478.34 44.9379 478.585 45.0271C478.83 45.1163 479.053 45.259 479.236 45.4447C479.42 45.6305 479.559 45.8547 479.645 46.1011C479.731 46.3475 479.761 46.6099 479.733 46.8694Z" fill="white"/>
<path fill-rule="evenodd" clip-rule="evenodd" d="M566.372 87.5441V138.464C566.401 138.726 566.37 138.991 566.283 139.239C566.195 139.488 566.053 139.713 565.867 139.9C565.681 140.086 565.455 140.228 565.206 140.315C564.958 140.403 564.693 140.433 564.431 140.404H552.213C551.951 140.433 551.686 140.403 551.437 140.315C551.189 140.228 550.963 140.086 550.776 139.9C550.59 139.713 550.448 139.488 550.361 139.239C550.273 138.991 550.243 138.726 550.271 138.464V129.382C548.022 133.199 544.812 136.36 540.961 138.553C537.11 140.745 532.752 141.892 528.321 141.879C513.877 141.879 504.739 132.435 504.739 118.593C504.739 104.75 513.877 96.6776 533.886 95.3062C539.106 94.9149 544.347 94.8716 549.572 95.1769V88.2168C549.572 79.6266 544.861 76.1595 536.94 76.1595C529.019 76.1595 526.12 79.0574 524.153 84.4909C523.609 86.0175 523.04 86.2762 521.564 85.8623L509.45 82.8091C508.208 82.3952 507.793 81.6966 508.208 80.584C510.408 69.8722 520.296 62.2652 537.639 62.2652C555.552 62.2652 566.372 70.7519 566.372 87.5441ZM549.572 115.695V106.277C544.8 106.077 540.02 106.164 535.258 106.536C526.25 107.519 521.099 110.572 521.099 117.791C521.099 124.026 525.421 128.14 532.773 128.14C540.538 128.063 546.518 123.483 549.572 115.695Z" fill="white"/>
<path fill-rule="evenodd" clip-rule="evenodd" d="M646.357 145.682C646.357 158.619 636.624 169.537 610.402 169.537C586.639 169.537 577.631 161.232 577.631 149.019C577.631 142.499 581.514 136.393 589.435 133.055C587.828 131.878 586.506 130.356 585.565 128.601C584.624 126.845 584.089 124.902 583.999 122.913C584.011 120.493 584.76 118.134 586.148 116.151C587.535 114.168 589.495 112.654 591.764 111.813C587.992 109.669 584.883 106.529 582.779 102.736C580.674 98.9436 579.654 94.645 579.831 90.3115C579.831 75.0458 589.254 63.7907 609.677 63.7907H644.105C644.326 63.8034 644.543 63.861 644.741 63.9602C644.939 64.0594 645.115 64.198 645.258 64.3676C645.401 64.5371 645.508 64.734 645.572 64.9462C645.637 65.1585 645.657 65.3816 645.632 65.6019V75.3305C645.647 75.5892 645.607 75.8482 645.515 76.0905C645.423 76.3328 645.28 76.5528 645.097 76.736C644.913 76.9193 644.693 77.0618 644.451 77.1539C644.208 77.2462 643.949 77.286 643.69 77.271H631.602C633.835 79.1777 635.607 81.5647 636.786 84.2532C637.965 86.9417 638.52 89.862 638.41 92.7954C638.41 105.991 629.117 116.082 609.936 116.082H605.069C600.488 116.082 598.546 118.048 598.546 120.662C598.546 123.275 600.643 124.983 605.069 124.983H620.911C638.85 125.138 646.357 133.883 646.357 145.682ZM629.971 147.208C629.971 142.758 627.383 138.592 618.452 138.592H604.422C596.217 138.592 593.318 142.913 593.318 147.338C593.318 153.728 598.495 157.894 611.437 157.894C624.38 157.894 629.971 153.314 629.971 147.208ZM595.362 90.3115C595.362 98.6429 600.229 104.18 609.677 104.18C618.556 104.18 623.552 99.1862 623.552 90.4408C623.552 82.1094 618.97 76.7018 609.522 76.7018C600.074 76.7018 595.362 81.6954 595.362 90.3115Z" fill="white"/>
<path fill-rule="evenodd" clip-rule="evenodd" d="M670.225 107.389V111.814C670.225 121.672 675.402 127.778 686.352 127.907C696.706 127.907 699.812 123.897 702.452 118.748C703.565 116.963 704.238 116.678 706.05 117.506L714.8 121.956C716.741 122.914 716.896 124.026 716.042 125.708C711.461 135.825 700.77 141.931 686.196 141.931C664.97 141.931 653.71 129.305 653.71 111.529V92.6671C653.71 75.3316 664.556 62.2652 685.938 62.2652C706.465 62.2652 717 75.2022 717 92.3825V104.052C717 106.277 716.146 107.389 713.506 107.389H670.225ZM670.225 91.9685V96.0048H701.055V91.9685C701.055 82.5504 695.878 76.2889 685.523 76.2889C675.169 76.2889 670.225 82.5504 670.225 91.9685Z" fill="white"/>
</svg>
