<svg width="702" height="701" viewBox="0 0 702 701" fill="none" xmlns="http://www.w3.org/2000/svg">
<path fill-rule="evenodd" clip-rule="evenodd" d="M155.958 59.0699C213.665 20.5565 281.511 1.32863e-05 350.916 1.32863e-05C397.002 -0.0126624 442.64 9.04469 485.221 26.6545C527.802 44.2642 566.491 70.0813 599.079 102.631C631.667 135.18 657.515 173.824 675.146 216.355C692.777 258.885 701.844 304.468 701.832 350.5C701.832 419.822 681.251 487.588 642.691 545.227C604.132 602.867 549.327 647.791 485.205 674.32C421.084 700.848 350.526 707.789 282.455 694.265C214.384 680.741 151.858 647.359 102.781 598.341C53.7047 549.322 20.2831 486.869 6.74292 418.879C-6.79725 350.889 0.152023 280.415 26.712 216.37C53.272 152.324 98.2498 97.5833 155.958 59.0699ZM98.6195 302.937L203.904 408.193C204.949 409.275 206.202 410.137 207.588 410.725C208.973 411.313 210.464 411.616 211.969 411.616C213.475 411.616 214.966 411.313 216.351 410.725C217.737 410.137 218.99 409.275 220.035 408.193L325.126 302.937C327.226 300.838 328.405 297.993 328.405 295.026C328.405 292.059 327.226 289.213 325.126 287.115L219.745 181.955C217.644 179.858 214.795 178.68 211.825 178.68C208.854 178.68 206.005 179.858 203.904 181.955L98.6195 287.115C96.5197 289.213 95.3405 292.059 95.3405 295.026C95.3405 297.993 96.5197 300.838 98.6195 302.937ZM358.836 547.023L464.121 441.863C466.221 439.765 467.4 436.919 467.4 433.952C467.4 430.985 466.221 428.14 464.121 426.041L358.836 320.785C356.735 318.688 353.886 317.51 350.916 317.51C347.945 317.51 345.096 318.688 342.995 320.785L237.614 426.041C235.515 428.14 234.335 430.985 234.335 433.952C234.335 436.919 235.515 439.765 237.614 441.863L342.995 547.023C345.096 549.12 347.945 550.298 350.916 550.298C353.886 550.298 356.735 549.12 358.836 547.023ZM497.831 408.193L603.115 302.937C604.167 301.904 605.002 300.673 605.572 299.315C606.142 297.957 606.436 296.499 606.436 295.026C606.436 293.553 606.142 292.095 605.572 290.737C605.002 289.379 604.167 288.147 603.115 287.115L497.831 181.955C495.73 179.858 492.881 178.68 489.911 178.68C486.94 178.68 484.091 179.858 481.99 181.955L376.609 287.115C374.509 289.213 373.33 292.059 373.33 295.026C373.33 297.993 374.509 300.838 376.609 302.937L481.99 408.193C484.091 410.29 486.94 411.469 489.911 411.469C492.881 411.469 495.73 410.29 497.831 408.193Z" fill="#8411DF" fill-opacity="0.5"/>
</svg>
