<svg width="18" height="18" viewBox="0 0 18 18" fill="none" xmlns="http://www.w3.org/2000/svg">
<path fill-rule="evenodd" clip-rule="evenodd" d="M8.99999 3.4116e-07C7.21996 3.4116e-07 5.47991 0.527841 3.99987 1.51677C2.51983 2.50571 1.36628 3.91132 0.685087 5.55585C0.003899 7.20039 -0.17433 9.00998 0.172937 10.7558C0.520203 12.5016 1.37737 14.1053 2.63604 15.364C3.89472 16.6226 5.49835 17.4798 7.24418 17.8271C8.99 18.1743 10.7996 17.9961 12.4441 17.3149C14.0887 16.6337 15.4943 15.4802 16.4832 14.0001C17.4721 12.5201 18 10.78 18 9C18.0003 7.81801 17.7678 6.64754 17.3156 5.55547C16.8634 4.46339 16.2005 3.4711 15.3647 2.63531C14.5289 1.79952 13.5366 1.1366 12.4445 0.684423C11.3525 0.232246 10.182 -0.000325141 8.99999 3.4116e-07ZM5.22956 10.4814L2.52931 7.77869C2.47546 7.7248 2.44521 7.65174 2.44521 7.57556C2.44521 7.49937 2.47546 7.42631 2.52931 7.37242L5.22956 4.67217C5.28345 4.61832 5.35652 4.58807 5.4327 4.58807C5.50889 4.58807 5.58194 4.61832 5.63583 4.67217L8.33856 7.37242C8.39241 7.42631 8.42266 7.49937 8.42266 7.57556C8.42266 7.65174 8.39241 7.7248 8.33856 7.77869L5.64327 10.4814C5.61646 10.5092 5.58434 10.5313 5.5488 10.5464C5.51325 10.5615 5.47502 10.5693 5.43641 10.5693C5.39779 10.5693 5.35957 10.5615 5.32403 10.5464C5.28849 10.5313 5.25637 10.5092 5.22956 10.4814ZM11.9034 11.346L9.20313 14.0462C9.14924 14.1001 9.07618 14.1303 8.99999 14.1303C8.92381 14.1303 8.85074 14.1001 8.79685 14.0462L6.09413 11.346C6.04028 11.2921 6.01002 11.219 6.01002 11.1429C6.01002 11.0667 6.04028 10.9936 6.09413 10.9397L8.79685 8.23699C8.85074 8.18314 8.92381 8.15289 8.99999 8.15289C9.07618 8.15289 9.14924 8.18314 9.20313 8.23699L11.9034 10.9397C11.9572 10.9936 11.9875 11.0667 11.9875 11.1429C11.9875 11.219 11.9572 11.2921 11.9034 11.346ZM15.4682 7.77869L12.768 10.4814C12.7141 10.5353 12.641 10.5655 12.5648 10.5655C12.4886 10.5655 12.4156 10.5353 12.3617 10.4814L9.65896 7.77869C9.6051 7.7248 9.57485 7.65174 9.57485 7.57556C9.57485 7.49937 9.6051 7.42631 9.65896 7.37242L12.3617 4.67217C12.4156 4.61832 12.4886 4.58807 12.5648 4.58807C12.641 4.58807 12.7141 4.61832 12.768 4.67217L15.4682 7.37242C15.4952 7.39893 15.5166 7.43055 15.5312 7.46542C15.5458 7.5003 15.5533 7.53774 15.5533 7.57556C15.5533 7.61337 15.5458 7.65081 15.5312 7.68569C15.5166 7.72056 15.4952 7.75218 15.4682 7.77869Z" fill="#9333EA"/>
</svg>
